<?xml version="1.0" encoding="UTF-8"?>
<svg version="1.1" xmlns="http://www.w3.org/2000/svg" width="500" height="500">
<path d="M0 0 C26.4 0 52.8 0 80 0 C81.98 9.24 83.96 18.48 86 28 C86.84429676 30.27426046 86.84429676 30.27426046 89.50390625 30.8515625 C91.01791016 31.23441406 91.01791016 31.23441406 92.5625 31.625 C93.57441406 31.88539062 94.58632813 32.14578125 95.62890625 32.4140625 C96.41136719 32.60742188 97.19382812 32.80078125 98 33 C98.4532666 32.51644043 98.9065332 32.03288086 99.37353516 31.53466797 C101.45634048 29.31382304 103.54065885 27.09440353 105.625 24.875 C106.33785156 24.11445313 107.05070312 23.35390625 107.78515625 22.5703125 C109.19321554 21.07182739 110.60752803 19.57919123 112.02832031 18.09277344 C113.26557833 16.77952731 114.47790107 15.44183642 115.65136719 14.07128906 C117.1484375 12.3828125 117.1484375 12.3828125 120 10 C124.95741926 9.83386665 129.07268089 12.29457604 133.375 14.5625 C134.01566406 14.89185547 134.65632813 15.22121094 135.31640625 15.56054688 C136.88138632 16.36639482 138.44124021 17.18218493 140 18 C140.14695312 17.18208984 140.14695312 17.18208984 140.296875 16.34765625 C140.44640625 15.59355469 140.5959375 14.83945313 140.75 14.0625 C140.88921875 13.33160156 141.0284375 12.60070312 141.171875 11.84765625 C142.36271412 7.75274248 144.26800078 3.89699825 146 0 C161.18 0 176.36 0 192 0 C193.98 5.61 195.96 11.22 198 17 C203.0237829 15.3254057 207.06012134 13.45429428 211.6328125 10.92578125 C214.41245259 9.83869428 215.2434074 10.01010136 218 11 C219.61993408 12.25917053 219.61993408 12.25917053 221.20800781 13.86743164 C221.80832825 14.46797867 222.40864868 15.0685257 223.02716064 15.68727112 C223.66272888 16.33832321 224.29829712 16.98937531 224.953125 17.66015625 C225.61334656 18.32462265 226.27356812 18.98908905 226.95379639 19.6736908 C229.0596764 21.79635563 231.15488328 23.92921605 233.25 26.0625 C234.67639232 27.50393934 236.1034677 28.94470309 237.53125 30.38476562 C241.02880594 33.91538832 244.51682565 37.45519053 248 41 C246.59442908 45.34400975 244.95463806 49.30614292 242.875 53.375 C242.06675781 54.96441406 242.06675781 54.96441406 241.2421875 56.5859375 C240.62730469 57.78089844 240.62730469 57.78089844 240 59 C242.60391539 59.97983928 245.20811968 60.95889794 247.8125 61.9375 C248.55048828 62.21529297 249.28847656 62.49308594 250.04882812 62.77929688 C251.11713867 63.18051758 251.11713867 63.18051758 252.20703125 63.58984375 C252.8616333 63.83597412 253.51623535 64.08210449 254.19067383 64.33569336 C255.78311815 64.92037033 257.39066676 65.46355559 259 66 C259 81.18 259 96.36 259 112 C253.06 113.98 247.12 115.96 241 118 C241 122.9407208 244.11966944 126.67873185 246.56640625 130.87109375 C248 134 248 134 247.96875 136.14453125 C246.66187324 138.64762182 244.97894997 140.30576194 242.9375 142.25 C242.20402344 142.95640625 241.47054688 143.6628125 240.71484375 144.390625 C240.14894531 144.92171875 239.58304687 145.4528125 239 146 C242.83075941 151.20801075 242.83075941 151.20801075 246.8984375 156.23046875 C264.20131933 176.64513368 267.54210735 200.88177463 265.7265625 226.921875 C262.91709424 250.35178014 249.55840167 270.73494059 232 286 C228.94413375 288.14705844 225.83104311 290.15914521 222.67578125 292.15625 C217.13172595 295.97638738 212.80125166 301.0197514 211.45149803 307.72470474 C210.99256738 311.05391838 210.86955625 314.21684489 210.86196899 317.57659912 C210.85378899 319.53620575 210.85378899 319.53620575 210.84544373 321.53540039 C210.84432413 322.97119136 210.84327358 324.40698238 210.84228516 325.84277344 C210.83761264 327.36436102 210.83246836 328.88594721 210.82688904 330.40753174 C210.81563673 333.67811704 210.80718874 336.94869339 210.80076981 340.21929169 C210.79005553 345.39771378 210.76980134 350.57607134 210.74765015 355.75445557 C210.68584176 370.47787515 210.63174925 385.2012905 210.59863281 399.92480469 C210.58025222 408.06126469 210.55127475 416.19761601 210.5106281 424.33399606 C210.48961875 428.63453391 210.47410944 432.93493517 210.47182083 437.23552704 C210.46966381 441.2838279 210.45368774 445.33184424 210.42743111 449.38005829 C210.42027713 450.8593997 210.41811805 452.33877573 210.42153358 453.81813049 C210.4507778 468.90218535 207.56819423 479.11885713 197.25 490.25 C189.14314976 498.07568781 180.316212 500.20507361 169.4375 500.3125 C168.48552734 500.34150391 167.53355469 500.37050781 166.55273438 500.40039062 C155.59480852 500.49736342 148.11782102 496.95279957 140.26171875 489.4296875 C132.4895199 481.08027872 127.86777311 471.33449166 127.87974548 459.80509949 C127.87768349 458.26762054 127.87768349 458.26762054 127.87557983 456.69908142 C127.87917511 455.58561844 127.88277039 454.47215546 127.88647461 453.32495117 C127.88632858 452.144039 127.88618256 450.96312683 127.8860321 449.74642944 C127.88660847 446.51747225 127.89161611 443.28855866 127.89860606 440.05961013 C127.90486677 436.68169454 127.90544555 433.30377804 127.90663147 429.92585754 C127.90973678 423.53343373 127.91793937 417.14102706 127.92798096 410.74861079 C127.93916696 403.46931287 127.94465881 396.19001412 127.94967639 388.91070974 C127.96012266 373.94046361 127.97770659 358.97023352 128 344 C121.96878455 342.91359012 118.85427364 343.55999565 113.625 346.5625 C107.76331351 349.71847104 101.91905577 352.32367034 95.625 354.5 C94.89361816 354.75467041 94.16223633 355.00934082 93.40869141 355.27172852 C88.30802047 357 88.30802047 357 86 357 C85.85900879 357.76143311 85.71801758 358.52286621 85.57275391 359.30737305 C84.9288004 362.76842537 84.2769847 366.22795198 83.625 369.6875 C83.40328125 370.88568359 83.1815625 372.08386719 82.953125 373.31835938 C82.73398437 374.47529297 82.51484375 375.63222656 82.2890625 376.82421875 C82.09006348 377.88729248 81.89106445 378.95036621 81.68603516 380.0456543 C81 383 81 383 79 388 C53.26 388 27.52 388 1 388 C-0.576385 384.0590375 -1.5213461 380.92544056 -2.2890625 376.82421875 C-2.61777344 375.08881836 -2.61777344 375.08881836 -2.953125 373.31835938 C-3.17484375 372.12017578 -3.3965625 370.92199219 -3.625 369.6875 C-3.85445312 368.46998047 -4.08390625 367.25246094 -4.3203125 365.99804688 C-4.88474158 362.99951737 -5.44446834 360.00018841 -6 357 C-7.89685547 356.64228516 -7.89685547 356.64228516 -9.83203125 356.27734375 C-15.42180852 355.03334752 -20.46801928 352.87852765 -25.6875 350.5625 C-26.59822266 350.16740234 -27.50894531 349.77230469 -28.44726562 349.36523438 C-32.17932042 347.73635643 -35.81544208 346.10045558 -39.39453125 344.15234375 C-42.40738863 342.81982062 -42.99088795 342.93228404 -46 344 C-47.56373854 344.91320259 -49.09163753 345.88909942 -50.58984375 346.90625 C-51.89018555 347.77443359 -51.89018555 347.77443359 -53.21679688 348.66015625 C-55.02791939 349.88490672 -56.83782068 351.11146509 -58.64648438 352.33984375 C-59.51466797 352.91863281 -60.38285156 353.49742187 -61.27734375 354.09375 C-62.06359131 354.62677734 -62.84983887 355.15980469 -63.65991211 355.70898438 C-66.33080488 357.18250352 -67.92673561 358.01023349 -71 358 C-73.20815595 356.3196708 -74.90592055 354.77142115 -76.78125 352.76953125 C-77.31721802 352.22270187 -77.85318604 351.6758725 -78.40539551 351.11247253 C-80.11826436 349.35940083 -81.80939814 347.58703074 -83.5 345.8125 C-85.19466657 344.06021958 -86.8935551 342.31216936 -88.59460449 340.56608582 C-89.65111423 339.47873639 -90.70321219 338.38707689 -91.75012207 337.29048157 C-94.66645622 334.25700254 -97.7118371 331.61592693 -101 329 C-102.1179033 327.79684375 -103.20321932 326.56239583 -104.25 325.296875 C-106.85044769 322.25361789 -109.55393247 319.41748564 -112.4375 316.640625 C-113.18644531 315.91746094 -113.93539062 315.19429688 -114.70703125 314.44921875 C-116.25977765 312.95995772 -117.81992667 311.47838324 -119.38671875 310.00390625 C-120.12535156 309.28589844 -120.86398438 308.56789063 -121.625 307.828125 C-122.29789063 307.1877832 -122.97078125 306.54744141 -123.6640625 305.88769531 C-125 304 -125 304 -124.79516602 301.89550781 C-123.78941027 299.49799858 -122.47354391 297.59937665 -120.9375 295.5 C-120.01517578 294.18128906 -120.01517578 294.18128906 -119.07421875 292.8359375 C-117.64076338 290.87607196 -116.13747748 288.96608771 -114.58203125 287.1015625 C-110.17648909 281.77297976 -110.17648909 281.77297976 -109.328125 275.23828125 C-110.67519254 272.01878982 -112.31674032 269.0579789 -114 266 C-115.46539389 262.7578422 -116.82374901 259.47344538 -118.1875 256.1875 C-118.53167969 255.38691162 -118.87585938 254.58632324 -119.23046875 253.76147461 C-119.56046875 252.98811768 -119.89046875 252.21476074 -120.23046875 251.41796875 C-120.52332764 250.73500732 -120.81618652 250.0520459 -121.11791992 249.34838867 C-122.2696284 246.28216009 -123.12933313 243.15595829 -124 240 C-124.87325928 239.823479 -125.74651855 239.64695801 -126.64624023 239.46508789 C-129.87652702 238.81024474 -133.10608501 238.15201734 -136.33520508 237.49145508 C-137.73466618 237.20590716 -139.13440628 236.92172315 -140.53442383 236.63891602 C-142.54322499 236.2328893 -144.55098162 235.8220165 -146.55859375 235.41015625 C-148.37315063 235.04096069 -148.37315063 235.04096069 -150.22436523 234.66430664 C-153 234 -153 234 -154 233 C-154.09500548 230.53555943 -154.12557985 228.09925374 -154.11352539 225.63452148 C-154.11367142 224.86384338 -154.11381744 224.09316528 -154.1139679 223.2991333 C-154.1132686 220.73975861 -154.10547545 218.1804558 -154.09765625 215.62109375 C-154.09579213 213.85132385 -154.0943682 212.08155344 -154.09336853 210.31178284 C-154.08954288 205.64448634 -154.0797122 200.97722077 -154.06866455 196.30993652 C-154.05845144 191.55102965 -154.05387113 186.79211779 -154.04882812 182.03320312 C-154.03808997 172.68878847 -154.02101299 163.3443968 -154 154 C-153.11412201 153.83213486 -152.22824402 153.66426971 -151.31552124 153.49131775 C-148.01094397 152.84717769 -144.71631368 152.17111264 -141.42294312 151.47276306 C-140.0003924 151.17798292 -138.57513975 150.89592865 -137.14743042 150.62724304 C-128.90905599 149.33466362 -128.90905599 149.33466362 -122.09771729 145.03277588 C-120.93262686 142.87130916 -120.19653533 140.94524364 -119.625 138.5625 C-119.41746094 137.70253418 -119.20992187 136.84256836 -118.99609375 135.95654297 C-118.90521484 134.89137451 -118.90521484 134.89137451 -118.8125 133.8046875 C-118.11215267 128.6500478 -116.13083134 124.69767935 -113.625 120.1875 C-110.38910597 114.44849813 -110.38910597 114.44849813 -110 108 C-111.39090186 105.2938689 -111.39090186 105.2938689 -113.3515625 102.62109375 C-114.03734375 101.61755859 -114.723125 100.61402344 -115.4296875 99.58007812 C-116.89762714 97.47873037 -118.36900557 95.37978082 -119.84375 93.28320312 C-120.86855469 91.77983398 -120.86855469 91.77983398 -121.9140625 90.24609375 C-122.5529541 89.33529053 -123.1918457 88.4244873 -123.85009766 87.48608398 C-125 85 -125 85 -124.38043213 83.17233276 C-122.57816825 80.33617966 -120.42642946 78.14774974 -118.06298828 75.7565918 C-117.56193573 75.24721573 -117.06088318 74.73783966 -116.54464722 74.21302795 C-114.89195475 72.53629965 -113.23175518 70.8672743 -111.5703125 69.19921875 C-110.41682389 68.03676336 -109.26341312 66.87423073 -108.1100769 65.71162415 C-105.69444961 63.27952491 -103.27447868 60.85183828 -100.85205078 58.42651367 C-97.74406447 55.31312625 -94.65257932 52.18388161 -91.56477547 49.05049419 C-89.1900466 46.64608522 -86.80420496 44.25294636 -84.41509628 41.86283302 C-83.26989645 40.71341774 -82.12883241 39.55986674 -80.99197769 38.40219688 C-79.40478132 36.78825693 -77.80267378 35.19075209 -76.19580078 33.59643555 C-75.28694122 32.68250534 -74.37808167 31.76857513 -73.44168091 30.82695007 C-71 29 -71 29 -68.79423523 29.14549255 C-66.78629804 30.1017759 -64.98139461 31.153333 -63.13671875 32.3984375 C-62.05293945 33.11773437 -62.05293945 33.11773437 -60.94726562 33.8515625 C-59.45243327 34.85931465 -57.95764096 35.8671262 -56.46289062 36.875 C-54.331087 38.28989717 -52.17617999 39.65456625 -50 41 C-49.4227417 41.38317383 -48.8454834 41.76634766 -48.25073242 42.16113281 C-45.64722251 43.63183529 -43.6285356 44.14775653 -40.71313477 43.46240234 C-38.04480953 42.43449869 -35.50564528 41.25713894 -32.9375 40 C-31.07698547 39.14394503 -29.21499829 38.29108353 -27.3515625 37.44140625 C-26.44438477 37.02133301 -25.53720703 36.60125977 -24.60253906 36.16845703 C-21.064196 34.57985385 -17.47246811 33.21634923 -13.8125 31.9375 C-12.72582031 31.55464844 -11.63914063 31.17179687 -10.51953125 30.77734375 C-8 30 -8 30 -6 30 C-5.85377197 29.19780029 -5.70754395 28.39560059 -5.55688477 27.5690918 C-4.8943326 23.94148072 -4.22845674 20.31448754 -3.5625 16.6875 C-3.33240234 15.42486328 -3.10230469 14.16222656 -2.86523438 12.86132812 C-2.64287109 11.65283203 -2.42050781 10.44433594 -2.19140625 9.19921875 C-1.98717041 8.08377686 -1.78293457 6.96833496 -1.57250977 5.8190918 C-1 3 -1 3 0 0 Z M159 17 C158.01 19.76375 157.02 22.5275 156 25.375 C155.68675781 26.24431152 155.37351562 27.11362305 155.05078125 28.00927734 C154.80714844 28.6945752 154.56351562 29.37987305 154.3125 30.0859375 C153.93544922 31.1385376 153.93544922 31.1385376 153.55078125 32.21240234 C152.9018491 34.00680111 152.9018491 34.00680111 153 36 C151.60993485 36.53603819 150.21257351 37.05317473 148.8125 37.5625 C148.03519531 37.85253906 147.25789063 38.14257812 146.45703125 38.44140625 C140.17219809 39.87023159 135.17177481 36.09779353 129.83984375 33.1796875 C127.18542535 31.84447547 127.18542535 31.84447547 124.87890625 32.08203125 C122.41703867 33.28481479 120.88525087 34.8278316 119 36.8125 C118.34 37.49957031 117.68 38.18664062 117 38.89453125 C116.01 39.93673828 116.01 39.93673828 115 41 C113.67013436 42.33679203 112.33780507 43.67115345 111 45 C111.61230469 46.05058594 112.22460938 47.10117187 112.85546875 48.18359375 C119.07640061 59.3453811 119.07640061 59.3453811 118.86328125 63.9609375 C118.07099517 66.11911045 117.10730705 67.99300597 116 70 C116 70.99 116 71.98 116 73 C115.38253906 73.18175781 114.76507813 73.36351562 114.12890625 73.55078125 C112.85853516 73.92783203 112.85853516 73.92783203 111.5625 74.3125 C110.73878906 74.55613281 109.91507812 74.79976562 109.06640625 75.05078125 C105.02359485 76.30225026 101.01490334 77.66169889 97 79 C97 85.27 97 91.54 97 98 C98.485 98.598125 99.97 99.19625 101.5 99.8125 C102.86511719 100.37324219 102.86511719 100.37324219 104.2578125 100.9453125 C106.89814158 102.0160793 106.89814158 102.0160793 109.3046875 102.6171875 C112.56995829 103.51667719 114.42473156 104.1838478 116.41796875 107.01171875 C118.55386357 111.42201351 119.45905603 114.20896507 118 119 C116.86128803 121.48222825 115.69543085 123.89378543 114.4375 126.3125 C114.10814453 126.95767578 113.77878906 127.60285156 113.43945312 128.26757812 C112.63175745 129.84785228 111.81662387 131.42432105 111 133 C111.66 133 112.32 133 113 133 C113 133.66 113 134.32 113 135 C118.18195215 133.07362374 122.8418493 130.36354073 127.6484375 127.65625 C131 126 131 126 138 124 C138 128.95 138 133.9 138 139 C140.1484375 139.16276042 142.296875 139.32552083 144.4453125 139.48828125 C147.91019387 140.18231712 150.07347574 140.95457982 153 143 C154.57987977 145.93952713 155.46755945 148.98601583 156.375 152.1875 C157.24125 155.095625 158.1075 158.00375 159 161 C165.6 161 172.2 161 179 161 C179.45375 159.535625 179.9075 158.07125 180.375 156.5625 C180.65859375 155.655 180.9421875 154.7475 181.234375 153.8125 C181.94435776 151.20440005 182.29063415 148.7374268 182.625 146.0625 C183.20820037 143.29352346 183.50379744 142.33320879 185.87890625 140.73828125 C191.2761255 138.72003175 193.9143088 139.13061554 200 140 C200 134.72 200 129.44 200 124 C208.36330271 126.75108642 215.52748982 130.35739332 223 135 C223.99 134.34 224.98 133.68 226 133 C224.87492672 129.34351184 223.51883344 125.94505519 221.875 122.5 C219.56215886 117.31992882 219.4220978 114.0283682 220.98828125 108.53125 C222.39193496 105.34405657 223.75398238 104.30850839 226.9765625 103.0390625 C228.51746374 102.54038042 230.06763185 102.0695952 231.625 101.625 C233.18019297 101.13963749 234.73490798 100.65273995 236.2890625 100.1640625 C237.51367188 99.77992187 238.73828125 99.39578125 240 99 C241.20495909 98.01592689 241.20495909 98.01592689 241.11352539 96.14233398 C241.10828857 95.35157471 241.10305176 94.56081543 241.09765625 93.74609375 C241.09443359 92.89208984 241.09121094 92.03808594 241.08789062 91.15820312 C241.07951172 90.26037109 241.07113281 89.36253906 241.0625 88.4375 C241.05573242 87.08495117 241.05573242 87.08495117 241.04882812 85.70507812 C241.03700225 83.46998686 241.0205222 81.23502563 241 79 C238.20964954 77.99619084 235.41785145 76.9968055 232.625 76 C231.43390625 75.57074219 231.43390625 75.57074219 230.21875 75.1328125 C229.45820313 74.86210938 228.69765625 74.59140625 227.9140625 74.3125 C227.2123291 74.06113281 226.5105957 73.80976562 225.78759766 73.55078125 C223.99319889 72.9018491 223.99319889 72.9018491 222 73 C221.87625 72.319375 221.7525 71.63875 221.625 70.9375 C221.06359624 67.90492591 221.06359624 67.90492591 219.7421875 64.796875 C218.76918237 59.81918562 220.09280976 57.58763536 222.5 53.3125 C225.24219487 48.86901198 225.24219487 48.86901198 225.5703125 43.90234375 C223.32793716 41.18583433 220.90385957 38.69542004 218.375 36.25 C217.859375 35.74339844 217.34375 35.23679687 216.8125 34.71484375 C215.54616661 33.47196098 214.2736856 32.23534724 213 31 C211.90300781 31.58910156 210.80601562 32.17820312 209.67578125 32.78515625 C208.22174018 33.54500997 206.76729144 34.30408392 205.3125 35.0625 C204.59126953 35.45244141 203.87003906 35.84238281 203.12695312 36.24414062 C197.74863628 39.01925388 197.74863628 39.01925388 194.41796875 38.93359375 C193.62003906 38.62550781 192.82210937 38.31742188 192 38 C190.81277344 37.67386719 189.62554687 37.34773438 188.40234375 37.01171875 C183.59773652 34.17087751 182.98170536 31.00219992 181.5625 25.8125 C180.716875 22.904375 179.87125 19.99625 179 17 C172.4 17 165.8 17 159 17 Z M-4 159 C-13.63857603 171.67857218 -17.13993564 185.20374892 -16 201 C-13.19208551 216.59576605 -4.98550062 230.27478754 7.75 239.75 C21.2179678 248.63927124 35.1134271 251.3617472 51 249 C54.83975547 247.98599699 58.38870332 246.64360298 62 245 C62.763125 244.65453125 63.52625 244.3090625 64.3125 243.953125 C67.79200424 242.29012665 71.17517655 240.66233361 74 238 C74.30385132 235.81402571 74.30385132 235.81402571 73.8125 233.4375 C73.68617188 232.54546875 73.55984375 231.6534375 73.4296875 230.734375 C73.21699219 229.38085938 73.21699219 229.38085938 73 228 C70.37938922 207.16950405 73.15065929 187.64747568 83 169 C83.58652344 168.278125 84.17304688 167.55625 84.77734375 166.8125 C86.19418831 165.09469931 86.19418831 165.09469931 85.93359375 163.05078125 C81.2174734 152.69110265 69.43269278 144.91606138 59.18359375 140.77734375 C35.73419368 132.42952512 11.88803264 140.49278935 -4 159 Z M110 161 C107.51283907 163.5572218 105.22401132 166.21192784 103 169 C102.48695313 169.61746094 101.97390625 170.23492187 101.4453125 170.87109375 C90.75590026 185.07748877 87.63437181 205.73593081 89.70654297 222.99023438 C91.78832665 236.75067685 96.22203582 249.88995402 106 260 C106.64195312 260.78890625 107.28390625 261.5778125 107.9453125 262.390625 C114.57029771 270.40106339 123.70588195 278.46768548 133.15722656 283.04467773 C135.60070001 284.31141218 135.94448683 285.48165946 137 288 C137.48597656 288.93714844 137.97195313 289.87429688 138.47265625 290.83984375 C138.99730469 291.86207031 139.52195312 292.88429688 140.0625 293.9375 C140.85333984 295.46697266 140.85333984 295.46697266 141.66015625 297.02734375 C145.2500185 304.99202355 144.48095321 313.17620452 145 322 C160.51 322 176.02 322 192 322 C192.33 316.72 192.66 311.44 193 306 C195.80538281 293.15429975 202.82222787 284.95302679 213.25 277.1875 C231.41830564 263.32012687 244.48666989 246.87331417 248.3984375 223.6328125 C248.68176528 221.41979278 248.86663615 219.22677214 249 217 C249.07927734 216.01193359 249.07927734 216.01193359 249.16015625 215.00390625 C250.08238149 193.79272563 240.32634598 175.41161965 226.8984375 159.78125 C225.1328495 158.12464891 223.35537842 156.78317852 221.38134766 155.38867188 C220.43251205 154.71668762 220.43251205 154.71668762 219.46450806 154.03112793 C218.9812204 153.69085571 218.49793274 153.3505835 218 153 C218.05107407 153.73312408 218.10214813 154.46624817 218.1547699 155.22158813 C218.61900725 162.19077567 218.96727045 169.15449544 219.19167995 176.13486671 C219.31100258 179.72397295 219.47190319 183.30017579 219.73510742 186.88183594 C221.37969719 209.86723845 221.37969719 209.86723845 215.87875366 216.59390259 C210.4306103 221.11961963 204.29138062 224.01209209 197.80477905 226.76074219 C194.12047827 228.38860607 191.03143825 230.40204468 187.71484375 232.68359375 C186.73322266 233.31974609 185.75160156 233.95589844 184.74023438 234.61132812 C182.79829901 235.87663096 180.86386339 237.15349059 178.93554688 238.43945312 C177.97583984 239.05626953 177.01613281 239.67308594 176.02734375 240.30859375 C175.19968506 240.85314209 174.37202637 241.39769043 173.51928711 241.95874023 C170.23582083 243.3158469 168.39231802 242.93338258 165 242 C162.97143555 241.02294922 162.97143555 241.02294922 161.13671875 239.8046875 C160.46389862 239.36318863 159.79107849 238.92168976 159.09786987 238.46681213 C157.51487608 237.42140049 155.93974091 236.36397121 154.3735199 235.29359436 C149.57568009 232.08269054 144.8811227 229.42306408 139.56005859 227.17016602 C122.90080916 219.66610061 122.90080916 219.66610061 119.64334106 211.66967773 C117.84297004 202.90177161 118.27032737 194.10809829 118.81982422 185.22918701 C119.0174481 181.59046809 119.06935456 177.94970968 119.13476562 174.30664062 C119.28332854 167.19611045 119.58942234 160.10063207 120 153 C116.74795739 153 112.25751759 158.8668837 110 161 Z M139 159 C137.45742563 160.54257437 137.81973194 162.01561843 137.75952148 164.16503906 C137.73377548 165.04975891 137.70802948 165.93447876 137.6815033 166.8460083 C137.59749521 170.90615133 137.53145735 174.96610422 137.48510742 179.02685547 C137.45347047 181.16875792 137.4057194 183.31048532 137.34155273 185.45166016 C137.25032796 188.53615314 137.21150024 191.61748697 137.18359375 194.703125 C137.14544052 195.65850159 137.10728729 196.61387817 137.06797791 197.59820557 C137.07584138 200.2878467 137.17288619 202.43884019 138 205 C140.37346947 207.34497859 142.98752143 208.62400401 146 210 C146.88461914 210.5455957 147.76923828 211.09119141 148.68066406 211.65332031 C151.20052701 213.19095312 153.7246922 214.72132703 156.25 216.25 C157.57644531 217.06210938 157.57644531 217.06210938 158.9296875 217.890625 C159.78304688 218.40625 160.63640625 218.921875 161.515625 219.453125 C162.28165039 219.91879883 163.04767578 220.38447266 163.83691406 220.86425781 C166.01630854 222.0085629 167.54623412 222.78192688 170 223 C172.44602899 222.02368273 172.44602899 222.02368273 174.921875 220.4296875 C175.86546875 219.8625 176.8090625 219.2953125 177.78125 218.7109375 C178.7609375 218.10507813 179.740625 217.49921875 180.75 216.875 C181.71421875 216.29234375 182.6784375 215.7096875 183.671875 215.109375 C186.45761945 213.42127443 189.23204736 211.71711211 192 210 C192.69077637 209.68321793 193.38155273 209.36643585 194.09326172 209.04005432 C196.40869579 207.87666504 198.15875529 206.82975018 200 205 C201.09949677 201.54423144 200.93617913 198.2644973 200.78125 194.66796875 C200.76993042 193.67622147 200.75861084 192.68447418 200.74694824 191.66267395 C200.70224583 188.50229769 200.60189543 185.34649877 200.5 182.1875 C200.45986504 180.04238335 200.42336429 177.8971954 200.390625 175.75195312 C200.30253333 170.49974657 200.16876412 165.25020019 200 160 C199.01 160 198.02 160 197 160 C196.16112944 162.43572059 195.32873471 164.87333217 194.5 167.3125 C194.26152344 168.00279297 194.02304687 168.69308594 193.77734375 169.40429688 C192.76791737 172.38931489 192 174.82658914 192 178 C176.82 177.67 161.64 177.34 146 177 C144.02 171.06 142.04 165.12 140 159 C139.67 159 139.34 159 139 159 Z M145 436 C144.9175 440.063125 144.835 444.12625 144.75 448.3125 C144.71358398 449.56973877 144.67716797 450.82697754 144.63964844 452.12231445 C144.55929035 460.39336516 145.28019288 468.71324755 150.91259766 475.20410156 C156.11210693 480.1189808 161.59720915 483.06100414 168.8125 483.5 C175.62508169 483.29198224 180.92927068 480.18183399 186.375 476.3125 C192.30068099 467.87980014 192.51599472 459.38746494 192.25 449.375 C192.1675 444.96125 192.085 440.5475 192 436 C176.49 436 160.98 436 145 436 Z " fill="#0C0B0A" transform="translate(194,0)"/>
<path d="M0 0 C26.4 0 52.8 0 80 0 C81.98 9.24 83.96 18.48 86 28 C86.83254913 30.23339896 86.83254913 30.23339896 89.28515625 30.8515625 C90.20167969 31.10679688 91.11820313 31.36203125 92.0625 31.625 C92.98160156 31.88539062 93.90070313 32.14578125 94.84765625 32.4140625 C95.55792969 32.60742188 96.26820313 32.80078125 97 33 C97 36 97 36 94.5 38.6875 C93.675 39.450625 92.85 40.21375 92 41 C93.33680696 45.3348886 95.03318244 49.22805127 97.125 53.25 C100 58.77990431 100 58.77990431 100 61 C93.73 62.98 87.46 64.96 81 67 C80.67 70.96 80.34 74.92 80 79 C78.7934375 78.72285156 77.586875 78.44570312 76.34375 78.16015625 C74.72921237 77.79406923 73.11462643 77.42819517 71.5 77.0625 C70.70851563 76.88009766 69.91703125 76.69769531 69.1015625 76.50976562 C40.99154019 70.1734901 11.73100541 73.06213788 -14 86 C-14.99128906 86.48339844 -15.98257813 86.96679688 -17.00390625 87.46484375 C-43.32038189 100.97870962 -64.49177474 125.65839524 -73.90771484 153.70361328 C-77.81261152 166.19368269 -80.1869023 177.47196957 -80.18530273 190.61083984 C-80.18747128 192.59867481 -80.20593122 194.58647036 -80.22460938 196.57421875 C-80.27220144 228.2705334 -66.28943111 257.19106625 -44.625 279.875 C-21.98736117 301.53827848 6.54721156 313.17093801 37.75 313.1875 C38.94882813 313.19974609 40.14765625 313.21199219 41.3828125 313.22460938 C49.13614255 313.23722325 56.40157487 312.5127153 64 311 C65.8871875 310.66548828 65.8871875 310.66548828 67.8125 310.32421875 C82.35496296 307.41929049 97.34720333 301.05910194 109.1875 291.9375 C112 290 112 290 113.92578125 290.18359375 C116.39400386 291.15507873 118.00026076 292.38303964 120 294.125 C120.66 294.68445313 121.32 295.24390625 122 295.8203125 C127.42073234 301.72806376 128.58706455 306.44153923 128.390625 314.21484375 C128.38496521 315.07058487 128.37930542 315.92632599 128.37347412 316.80799866 C128.35123507 319.51842211 128.30106425 322.22748191 128.25 324.9375 C128.22991878 326.784486 128.21167086 328.6314929 128.1953125 330.47851562 C128.15141147 334.9861957 128.08247269 339.49286733 128 344 C126.91895996 343.805271 125.83791992 343.61054199 124.72412109 343.40991211 C120.09459411 342.90034244 117.50850832 344.33269689 113.625 346.5625 C107.76331351 349.71847104 101.91905577 352.32367034 95.625 354.5 C94.89361816 354.75467041 94.16223633 355.00934082 93.40869141 355.27172852 C88.30802047 357 88.30802047 357 86 357 C85.85900879 357.76143311 85.71801758 358.52286621 85.57275391 359.30737305 C84.9288004 362.76842537 84.2769847 366.22795198 83.625 369.6875 C83.40328125 370.88568359 83.1815625 372.08386719 82.953125 373.31835938 C82.73398437 374.47529297 82.51484375 375.63222656 82.2890625 376.82421875 C82.09006348 377.88729248 81.89106445 378.95036621 81.68603516 380.0456543 C81 383 81 383 79 388 C53.26 388 27.52 388 1 388 C-0.576385 384.0590375 -1.5213461 380.92544056 -2.2890625 376.82421875 C-2.61777344 375.08881836 -2.61777344 375.08881836 -2.953125 373.31835938 C-3.17484375 372.12017578 -3.3965625 370.92199219 -3.625 369.6875 C-3.85445312 368.46998047 -4.08390625 367.25246094 -4.3203125 365.99804688 C-4.88474158 362.99951737 -5.44446834 360.00018841 -6 357 C-7.89685547 356.64228516 -7.89685547 356.64228516 -9.83203125 356.27734375 C-15.42180852 355.03334752 -20.46801928 352.87852765 -25.6875 350.5625 C-26.59822266 350.16740234 -27.50894531 349.77230469 -28.44726562 349.36523438 C-32.17932042 347.73635643 -35.81544208 346.10045558 -39.39453125 344.15234375 C-42.40738863 342.81982062 -42.99088795 342.93228404 -46 344 C-47.56373854 344.91320259 -49.09163753 345.88909942 -50.58984375 346.90625 C-51.89018555 347.77443359 -51.89018555 347.77443359 -53.21679688 348.66015625 C-55.02791939 349.88490672 -56.83782068 351.11146509 -58.64648438 352.33984375 C-59.51466797 352.91863281 -60.38285156 353.49742187 -61.27734375 354.09375 C-62.06359131 354.62677734 -62.84983887 355.15980469 -63.65991211 355.70898438 C-66.33080488 357.18250352 -67.92673561 358.01023349 -71 358 C-73.20815595 356.3196708 -74.90592055 354.77142115 -76.78125 352.76953125 C-77.31721802 352.22270187 -77.85318604 351.6758725 -78.40539551 351.11247253 C-80.11826436 349.35940083 -81.80939814 347.58703074 -83.5 345.8125 C-85.19466657 344.06021958 -86.8935551 342.31216936 -88.59460449 340.56608582 C-89.65111423 339.47873639 -90.70321219 338.38707689 -91.75012207 337.29048157 C-94.66645622 334.25700254 -97.7118371 331.61592693 -101 329 C-102.1179033 327.79684375 -103.20321932 326.56239583 -104.25 325.296875 C-106.85044769 322.25361789 -109.55393247 319.41748564 -112.4375 316.640625 C-113.18644531 315.91746094 -113.93539062 315.19429688 -114.70703125 314.44921875 C-116.25977765 312.95995772 -117.81992667 311.47838324 -119.38671875 310.00390625 C-120.12535156 309.28589844 -120.86398438 308.56789063 -121.625 307.828125 C-122.29789063 307.1877832 -122.97078125 306.54744141 -123.6640625 305.88769531 C-125 304 -125 304 -124.79516602 301.89550781 C-123.78941027 299.49799858 -122.47354391 297.59937665 -120.9375 295.5 C-120.01517578 294.18128906 -120.01517578 294.18128906 -119.07421875 292.8359375 C-117.64076338 290.87607196 -116.13747748 288.96608771 -114.58203125 287.1015625 C-110.17648909 281.77297976 -110.17648909 281.77297976 -109.328125 275.23828125 C-110.67519254 272.01878982 -112.31674032 269.0579789 -114 266 C-115.46539389 262.7578422 -116.82374901 259.47344538 -118.1875 256.1875 C-118.53167969 255.38691162 -118.87585938 254.58632324 -119.23046875 253.76147461 C-119.56046875 252.98811768 -119.89046875 252.21476074 -120.23046875 251.41796875 C-120.52332764 250.73500732 -120.81618652 250.0520459 -121.11791992 249.34838867 C-122.2696284 246.28216009 -123.12933313 243.15595829 -124 240 C-124.87325928 239.823479 -125.74651855 239.64695801 -126.64624023 239.46508789 C-129.87652702 238.81024474 -133.10608501 238.15201734 -136.33520508 237.49145508 C-137.73466618 237.20590716 -139.13440628 236.92172315 -140.53442383 236.63891602 C-142.54322499 236.2328893 -144.55098162 235.8220165 -146.55859375 235.41015625 C-148.37315063 235.04096069 -148.37315063 235.04096069 -150.22436523 234.66430664 C-153 234 -153 234 -154 233 C-154.09500548 230.53555943 -154.12557985 228.09925374 -154.11352539 225.63452148 C-154.11367142 224.86384338 -154.11381744 224.09316528 -154.1139679 223.2991333 C-154.1132686 220.73975861 -154.10547545 218.1804558 -154.09765625 215.62109375 C-154.09579213 213.85132385 -154.0943682 212.08155344 -154.09336853 210.31178284 C-154.08954288 205.64448634 -154.0797122 200.97722077 -154.06866455 196.30993652 C-154.05845144 191.55102965 -154.05387113 186.79211779 -154.04882812 182.03320312 C-154.03808997 172.68878847 -154.02101299 163.3443968 -154 154 C-153.11412201 153.83213486 -152.22824402 153.66426971 -151.31552124 153.49131775 C-148.01094397 152.84717769 -144.71631368 152.17111264 -141.42294312 151.47276306 C-140.0003924 151.17798292 -138.57513975 150.89592865 -137.14743042 150.62724304 C-128.90905599 149.33466362 -128.90905599 149.33466362 -122.09771729 145.03277588 C-120.93262686 142.87130916 -120.19653533 140.94524364 -119.625 138.5625 C-119.41746094 137.70253418 -119.20992187 136.84256836 -118.99609375 135.95654297 C-118.90521484 134.89137451 -118.90521484 134.89137451 -118.8125 133.8046875 C-118.11215267 128.6500478 -116.13083134 124.69767935 -113.625 120.1875 C-110.38910597 114.44849813 -110.38910597 114.44849813 -110 108 C-111.39090186 105.2938689 -111.39090186 105.2938689 -113.3515625 102.62109375 C-114.03734375 101.61755859 -114.723125 100.61402344 -115.4296875 99.58007812 C-116.89762714 97.47873037 -118.36900557 95.37978082 -119.84375 93.28320312 C-120.86855469 91.77983398 -120.86855469 91.77983398 -121.9140625 90.24609375 C-122.5529541 89.33529053 -123.1918457 88.4244873 -123.85009766 87.48608398 C-125 85 -125 85 -124.38043213 83.17233276 C-122.57816825 80.33617966 -120.42642946 78.14774974 -118.06298828 75.7565918 C-117.56193573 75.24721573 -117.06088318 74.73783966 -116.54464722 74.21302795 C-114.89195475 72.53629965 -113.23175518 70.8672743 -111.5703125 69.19921875 C-110.41682389 68.03676336 -109.26341312 66.87423073 -108.1100769 65.71162415 C-105.69444961 63.27952491 -103.27447868 60.85183828 -100.85205078 58.42651367 C-97.74406447 55.31312625 -94.65257932 52.18388161 -91.56477547 49.05049419 C-89.1900466 46.64608522 -86.80420496 44.25294636 -84.41509628 41.86283302 C-83.26989645 40.71341774 -82.12883241 39.55986674 -80.99197769 38.40219688 C-79.40478132 36.78825693 -77.80267378 35.19075209 -76.19580078 33.59643555 C-75.28694122 32.68250534 -74.37808167 31.76857513 -73.44168091 30.82695007 C-71 29 -71 29 -68.79423523 29.14549255 C-66.78629804 30.1017759 -64.98139461 31.153333 -63.13671875 32.3984375 C-62.05293945 33.11773437 -62.05293945 33.11773437 -60.94726562 33.8515625 C-59.45243327 34.85931465 -57.95764096 35.8671262 -56.46289062 36.875 C-54.331087 38.28989717 -52.17617999 39.65456625 -50 41 C-49.4227417 41.38317383 -48.8454834 41.76634766 -48.25073242 42.16113281 C-45.64722251 43.63183529 -43.6285356 44.14775653 -40.71313477 43.46240234 C-38.04480953 42.43449869 -35.50564528 41.25713894 -32.9375 40 C-31.07698547 39.14394503 -29.21499829 38.29108353 -27.3515625 37.44140625 C-26.44438477 37.02133301 -25.53720703 36.60125977 -24.60253906 36.16845703 C-21.064196 34.57985385 -17.47246811 33.21634923 -13.8125 31.9375 C-12.72582031 31.55464844 -11.63914063 31.17179687 -10.51953125 30.77734375 C-8 30 -8 30 -6 30 C-5.85377197 29.19780029 -5.70754395 28.39560059 -5.55688477 27.5690918 C-4.8943326 23.94148072 -4.22845674 20.31448754 -3.5625 16.6875 C-3.33240234 15.42486328 -3.10230469 14.16222656 -2.86523438 12.86132812 C-2.64287109 11.65283203 -2.42050781 10.44433594 -2.19140625 9.19921875 C-1.98717041 8.08377686 -1.78293457 6.96833496 -1.57250977 5.8190918 C-1 3 -1 3 0 0 Z " fill="#EFBB5E" transform="translate(194,0)"/>
<path d="M0 0 C0 4.62 0 9.24 0 14 C1.258125 14.2475 2.51625 14.495 3.8125 14.75 C9.40232809 15.97833802 14.66785174 17.94687375 20 20 C18.1304465 24.95203683 15.65052774 29.50616276 13.14453125 34.16015625 C11.8517209 36.8156369 11.8517209 36.8156369 12.0703125 39.10546875 C13.32619609 41.66472732 15.00262479 43.28821408 17.0625 45.25 C17.79597656 45.95640625 18.52945313 46.6628125 19.28515625 47.390625 C19.85105469 47.92171875 20.41695312 48.4528125 21 49 C20.34 49.99 19.68 50.98 19 52 C15.56830115 50.54343449 13.61466212 48.68387826 11.125 45.9375 C2.14081547 36.79130559 -8.79388911 30.79249921 -21 27 C-21.78117187 26.75507812 -22.56234375 26.51015625 -23.3671875 26.2578125 C-41.7565919 21.61273803 -61.39252465 25.35756117 -77.5234375 34.80078125 C-95.40878952 45.8377838 -106.54097308 62.86564396 -111.3828125 83.1328125 C-114.18298335 100.6781868 -110.93112385 119.65074717 -101.25 134.75 C-100.19320903 136.18657523 -99.10684202 137.60162369 -98 139 C-97.2575 139.97710937 -96.515 140.95421875 -95.75 141.9609375 C-85.66338545 154.90850462 -71.07225559 164.35512804 -54.81640625 167.56640625 C-37.17992695 169.57014136 -22.05044767 168.23579998 -6.42822266 159.60546875 C-1.48879484 156.93697149 -1.48879484 156.93697149 1.11865234 157.27319336 C3.94896528 158.36660649 4.64298679 160.20966775 6.125 162.8125 C9.60330464 168.6020964 13.63444615 173.49610893 18.05859375 178.56640625 C20 181 20 181 20 183 C1.18739313 194.257544 -17.15943348 201.58841416 -39.4375 201.375 C-40.64470703 201.38660156 -41.85191406 201.39820313 -43.09570312 201.41015625 C-54.58680687 201.37326667 -65.56326954 199.38493425 -76.25 195.125 C-76.9205542 194.86380371 -77.5911084 194.60260742 -78.28198242 194.33349609 C-105.11572018 183.71120212 -125.27973852 163.23260741 -137 137 C-147.89670387 110.57626485 -147.92287776 82.46470795 -137.62329102 55.80419922 C-132.15637539 42.73322577 -123.89783602 31.98990892 -114 22 C-113.38511719 21.33613281 -112.77023438 20.67226562 -112.13671875 19.98828125 C-84.68850205 -9.16316608 -35.73555758 -16.13863891 0 0 Z " fill="#EEBA5E" transform="translate(274,97)"/>
<path d="M0 0 C1.12341797 0.61681641 1.12341797 0.61681641 2.26953125 1.24609375 C11.89684753 7.03560422 17.57316333 15.44844076 21 26 C21.495 27.485 21.495 27.485 22 29 C23.03577184 42.70275211 20.77664994 53.58609925 12.1953125 64.58984375 C4.69194371 72.82752799 -6.35566565 77.31738477 -17.40234375 78.03515625 C-28.11473706 77.89017649 -39.42399171 75.2366207 -47.41015625 67.7578125 C-56.07940846 58.17264421 -60.44299567 47.16854298 -60.26953125 34.31640625 C-59.30630371 22.46451953 -54.23992423 12.47696406 -45.31640625 4.64453125 C-31.96944614 -5.51841064 -15.07599429 -8.6666067 0 0 Z M-35.20703125 19.16796875 C-39.66200597 23.72000174 -42.71676028 29.48532571 -43.125 35.90234375 C-42.62163616 44.34941815 -39.15600006 50.34680789 -33 56 C-27.13524624 60.22807829 -21.06988346 60.72671343 -14 60 C-7.30744078 58.22245627 -2.70919619 54.82534018 1 49 C3.90025822 43.61694496 5.12672212 38.05021374 4 32 C1.40162986 24.10299271 -1.98580599 18.78998396 -9.48828125 14.98828125 C-18.65911888 11.37984903 -27.62762332 12.95013111 -35.20703125 19.16796875 Z " fill="#0F0F0F" transform="translate(382,52)"/>
<path d="M0 0 C1.1666302 3.49989059 0.44440758 5.16897029 -0.49285889 8.62670898 C-1.45481172 13.12840282 -1.36152956 17.69407513 -1.4140625 22.28125 C-1.43342865 23.33534058 -1.4527948 24.38943115 -1.4727478 25.47546387 C-1.53216164 28.81689557 -1.57877562 32.15836244 -1.625 35.5 C-1.66321494 37.77605605 -1.70226869 40.05209819 -1.7421875 42.328125 C-1.83939828 47.8853411 -1.91927067 53.44242267 -2 59 C-12.56 59 -23.12 59 -34 59 C-34 64.28 -34 69.56 -34 75 C-23.44 75 -12.88 75 -2 75 C-2 90.84 -2 106.68 -2 123 C-12.89 123 -23.78 123 -35 123 C-35 128.28 -35 133.56 -35 139 C-24.11 139 -13.22 139 -2 139 C-2 148.57 -2 158.14 -2 168 C-2.33 168 -2.66 168 -3 168 C-3 158.76 -3 149.52 -3 140 C-18.51 140 -34.02 140 -50 140 C-50 129.11 -50 118.22 -50 107 C-39.44 107 -28.88 107 -18 107 C-18 101.72 -18 96.44 -18 91 C-28.56 91 -39.12 91 -50 91 C-50 75.16 -50 59.32 -50 43 C-39.44 43 -28.88 43 -18 43 C-18 37.39 -18 31.78 -18 26 C-13.05 26 -8.1 26 -3 26 C-3.061875 23.56625 -3.12375 21.1325 -3.1875 18.625 C-3.27097435 11.96469674 -2.51902614 6.23758854 0 0 Z " fill="#EBBA60" transform="translate(389,296)"/>
<path d="M0 0 C5.61 0 11.22 0 17 0 C17 5.61 17 11.22 17 17 C11.39 17 5.78 17 0 17 C0 11.39 0 5.78 0 0 Z " fill="#020102" transform="translate(72,185)"/>
<path d="M0 0 C0.44730469 0.38671875 0.89460938 0.7734375 1.35546875 1.171875 C4.8521026 4.18390075 8.37407463 7.14321031 12 10 C10.46356148 13.68069887 8.21849055 15.98775204 5.375 18.75 C4.55773437 19.54921875 3.74046875 20.3484375 2.8984375 21.171875 C2.27195312 21.77515625 1.64546875 22.3784375 1 23 C-3.17443363 19.49925018 -7.3145494 16.02049157 -11 12 C-11 11.34 -11 10.68 -11 10 C-9.35546875 8.37890625 -9.35546875 8.37890625 -7.1875 6.5625 C-4.68897282 4.45536324 -2.2757944 2.34758602 0 0 Z " fill="#0E0803" transform="translate(125,74)"/>
<path d="M0 0 C4.10447392 0.51776621 5.95699523 2.64627444 8.75 5.5625 C9.54921875 6.38878906 10.3484375 7.21507812 11.171875 8.06640625 C11.77515625 8.70449219 12.3784375 9.34257812 13 10 C11.86728288 13.39815137 10.8090686 14.28644916 8.125 16.5625 C7.42632812 17.16191406 6.72765625 17.76132812 6.0078125 18.37890625 C4 20 4 20 1 22 C-0.29549899 20.90033225 -1.58626071 19.79508199 -2.875 18.6875 C-3.59429687 18.07261719 -4.31359375 17.45773437 -5.0546875 16.82421875 C-7 15 -7 15 -9 12 C-8.9375 10.0625 -8.9375 10.0625 -8 8 C-6.36739286 6.62517293 -4.69774938 5.29352333 -3 4 C-1.23676495 1.87396815 -1.23676495 1.87396815 0 0 Z " fill="#0E0904" transform="translate(124,291)"/>
<path d="M0 0 C5.28 0 10.56 0 16 0 C16 5.28 16 10.56 16 16 C10.72 16 5.44 16 0 16 C0 10.72 0 5.44 0 0 Z " fill="#0D0702" transform="translate(226,339)"/>
<path d="M0 0 C5.28 0 10.56 0 16 0 C16 5.28 16 10.56 16 16 C10.72 16 5.44 16 0 16 C0 10.72 0 5.44 0 0 Z " fill="#0C0701" transform="translate(226,32)"/>
<path d="M0 0 C2.5 1.625 2.5 1.625 4 4 C4.71525283 8.37098953 4.50639423 10.25623347 2 13.9375 C-2.15080314 16.79117716 -4.0301078 16.7099846 -9 16 C-12.33219018 13.86398066 -12.89315459 12.3672811 -14 8.5625 C-14 5 -14 5 -12.1875 2.125 C-8.31252414 -1.63926226 -5.05099669 -1.26774028 0 0 Z " fill="#1A1A1A" transform="translate(368,452)"/>
<path d="M0 0 C1.1666302 3.49989059 0.44440758 5.16897029 -0.49285889 8.62670898 C-1.45481172 13.12840282 -1.36152956 17.69407513 -1.4140625 22.28125 C-1.43342865 23.33534058 -1.4527948 24.38943115 -1.4727478 25.47546387 C-1.53216164 28.81689557 -1.57877562 32.15836244 -1.625 35.5 C-1.66321494 37.77605605 -1.70226869 40.05209819 -1.7421875 42.328125 C-1.83939828 47.8853411 -1.91927067 53.44242267 -2 59 C-12.56 59 -23.12 59 -34 59 C-33.67 58.34 -33.34 57.68 -33 57 C-23.43 57 -13.86 57 -4 57 C-4 47.76 -4 38.52 -4 29 C-7.96 28.67 -11.92 28.34 -16 28 C-16.33 29.32 -16.66 30.64 -17 32 C-17 30.02 -17 28.04 -17 26 C-12.38 26 -7.76 26 -3 26 C-3.05220703 24.44152344 -3.05220703 24.44152344 -3.10546875 22.8515625 C-3.29272919 14.72133835 -3.09728418 7.66946559 0 0 Z " fill="#CCAD73" transform="translate(389,296)"/>
<path d="M0 0 C-1 2 -1 2 -3.36328125 2.8515625 C-4.33652344 3.10679687 -5.30976562 3.36203125 -6.3125 3.625 C-7.27800781 3.88539063 -8.24351563 4.14578125 -9.23828125 4.4140625 C-12 5 -12 5 -16 5 C-16 29.75 -16 54.5 -16 80 C-12.6660272 80.66679456 -9.54344726 81.21187864 -6.1875 81.5625 C-5.00220703 81.68818359 -5.00220703 81.68818359 -3.79296875 81.81640625 C-3.20128906 81.87699219 -2.60960937 81.93757813 -2 82 C-5.28409538 83.99801607 -7.40147728 84.15166527 -11.1875 83.6875 C-12.06792969 83.58824219 -12.94835938 83.48898438 -13.85546875 83.38671875 C-16 83 -16 83 -17 82 C-17.09500548 79.53555943 -17.12557985 77.09925374 -17.11352539 74.63452148 C-17.11367142 73.86384338 -17.11381744 73.09316528 -17.1139679 72.2991333 C-17.1132686 69.73975861 -17.10547545 67.1804558 -17.09765625 64.62109375 C-17.09579213 62.85132385 -17.0943682 61.08155344 -17.09336853 59.31178284 C-17.08954288 54.64448634 -17.0797122 49.97722077 -17.06866455 45.30993652 C-17.05845144 40.55102965 -17.05387113 35.79211779 -17.04882812 31.03320312 C-17.03808997 21.68878847 -17.02101299 12.3443968 -17 3 C-15.10614563 2.49255577 -13.20981334 1.99435426 -11.3125 1.5 C-9.72888672 1.08234375 -9.72888672 1.08234375 -8.11328125 0.65625 C-5.28857328 0.0608285 -2.87163292 -0.12786492 0 0 Z " fill="#EDC886" transform="translate(57,151)"/>
<path d="M0 0 C0.495 0.99 0.495 0.99 1 2 C0.0625 4.125 0.0625 4.125 -1 6 C-1.99 6 -2.98 6 -4 6 C-4.226875 6.763125 -4.45375 7.52625 -4.6875 8.3125 C-6.29414998 11.60230709 -7.89469418 12.18226001 -11 14 C-11.495 14.825 -11.99 15.65 -12.5 16.5 C-14 19 -14 19 -16.4375 20.4375 C-19.67923882 22.41417001 -20.97674185 24.83022889 -23 28 C-23.99 28.66 -24.98 29.32 -26 30 C-26.33 30.66 -26.66 31.32 -27 32 C-27.66 32 -28.32 32 -29 32 C-29.309375 32.928125 -29.309375 32.928125 -29.625 33.875 C-31.54775888 36.84653645 -33.66594527 37.13024659 -37 38 C-32.75789864 32.93288701 -28.32282911 28.18776629 -23.6328125 23.53515625 C-22.95322479 22.85698349 -22.27363708 22.17881073 -21.57345581 21.48008728 C-19.42632998 19.33850859 -17.27573373 17.20045471 -15.125 15.0625 C-13.65862227 13.60114411 -12.1924742 12.13955774 -10.7265625 10.67773438 C-7.15369 7.11582065 -3.57770316 3.55706135 0 0 Z " fill="#EBC781" transform="translate(116,36)"/>
<path d="M0 0 C0.33 0 0.66 0 1 0 C1.38838614 2.79040505 1.76120046 5.58137886 2.125 8.375 C2.23714844 9.1690625 2.34929687 9.963125 2.46484375 10.78125 C2.72721267 12.84521885 2.87150738 14.92339351 3 17 C1 19 1 19 -2.16455078 19.13525391 C-3.50850662 19.09273949 -4.85215143 19.03935675 -6.1953125 18.9765625 C-7.48969238 18.93096191 -8.78407227 18.88536133 -10.11767578 18.83837891 C-11.77009277 18.76796387 -13.42250977 18.69754883 -15.125 18.625 C-20.36375 18.41875 -25.6025 18.2125 -31 18 C-30.67 33.18 -30.34 48.36 -30 64 C-30.66 64 -31.32 64 -32 64 C-32 48.49 -32 32.98 -32 17 C-21.44 17 -10.88 17 0 17 C0 11.39 0 5.78 0 0 Z " fill="#E2BD79" transform="translate(371,322)"/>
<path d="M0 0 C10.89 0 21.78 0 33 0 C33 15.84 33 31.68 33 48 C32.67 48 32.34 48 32 48 C31.67 33.15 31.34 18.3 31 3 C16.15 2.505 16.15 2.505 1 2 C0.67 1.34 0.34 0.68 0 0 Z " fill="#CEA96A" transform="translate(354,371)"/>
<path d="M0 0 C10.56 0 21.12 0 32 0 C32 5.61 32 11.22 32 17 C21.44 17 10.88 17 0 17 C0.495 15.515 0.495 15.515 1 14 C10.57 14 20.14 14 30 14 C30.33 9.71 30.66 5.42 31 1 C20.77 1 10.54 1 0 1 C0 0.67 0 0.34 0 0 Z " fill="#362918" transform="translate(339,322)"/>
<path d="M0 0 C5.61 0 11.22 0 17 0 C17 5.61 17 11.22 17 17 C11.39 17 5.78 17 0 17 C0 11.39 0 5.78 0 0 Z M2 3 C1.92741054 5.18639453 1.91626217 7.37500389 1.9375 9.5625 C1.94652344 10.76003906 1.95554687 11.95757812 1.96484375 13.19140625 C1.97644531 14.11824219 1.98804687 15.04507813 2 16 C3.79133978 16.05391993 5.58313899 16.09275571 7.375 16.125 C8.37273437 16.14820313 9.37046875 16.17140625 10.3984375 16.1953125 C13.16262173 16.27216848 13.16262173 16.27216848 15 14 C15.24339551 11.10116917 15.24339551 11.10116917 15.125 7.875 C15.10695313 6.77929688 15.08890625 5.68359375 15.0703125 4.5546875 C15.04710938 3.71164063 15.02390625 2.86859375 15 2 C13.02090602 1.97313447 11.04171029 1.95366625 9.0625 1.9375 C7.40927734 1.92009766 7.40927734 1.92009766 5.72265625 1.90234375 C3.08552366 1.68737429 3.08552366 1.68737429 2 3 Z " fill="#473115" transform="translate(72,185)"/>
<path d="M0 0 C0.66 0 1.32 0 2 0 C2 1.98 2 3.96 2 6 C2.66 6 3.32 6 4 6 C4 6.99 4 7.98 4 9 C28.75 9 53.5 9 79 9 C79.33 7.68 79.66 6.36 80 5 C80.5625 6.9375 80.5625 6.9375 81 9 C79.30331793 10.69668207 77.18867982 10.11968993 74.92559814 10.12442017 C74.19983582 10.12082489 73.47407349 10.11722961 72.72631836 10.11352539 C71.58493156 10.11374443 71.58493156 10.11374443 70.42048645 10.1139679 C67.89357702 10.11326862 65.36674038 10.10547555 62.83984375 10.09765625 C61.0924941 10.09579212 59.34514393 10.0943682 57.59779358 10.09336853 C52.98968066 10.08954293 48.38159905 10.07971229 43.77349854 10.06866455 C39.07491479 10.05845134 34.37632601 10.0538711 29.67773438 10.04882812 C20.45180913 10.03809005 11.22590716 10.02101313 2 10 C0.48179307 6.44357039 -0.2220879 3.88653827 0 0 Z " fill="#F3D093" transform="translate(193,378)"/>
<path d="M0 0 C0.66 1.32 1.32 2.64 2 4 C1.01 5.485 1.01 5.485 0 7 C-0.66 7 -1.32 7 -2 7 C-1.73123047 7.92232422 -1.73123047 7.92232422 -1.45703125 8.86328125 C-1.13798828 10.07564453 -1.13798828 10.07564453 -0.8125 11.3125 C-0.59207031 12.11300781 -0.37164062 12.91351563 -0.14453125 13.73828125 C0 16 0 16 -1.32421875 17.79296875 C-3 19 -3 19 -5 19 C-4.87625 20.3921875 -4.87625 20.3921875 -4.75 21.8125 C-5 25 -5 25 -6.59375 26.6875 C-9.78927996 28.43051634 -12.13298456 28.29601046 -15.75 28.1875 C-16.92046875 28.16042969 -18.0909375 28.13335937 -19.296875 28.10546875 C-20.18890625 28.07066406 -21.0809375 28.03585938 -22 28 C-22 27.67 -22 27.34 -22 27 C-21.13117187 26.99226563 -20.26234375 26.98453125 -19.3671875 26.9765625 C-15.28470537 26.56557437 -12.59943171 26.01825278 -9 24 C-5.96742654 19.24751685 -4.90071044 13.55378028 -3.60058594 8.13427734 C-2.7786116 5.21326123 -1.47254973 2.64292886 0 0 Z " fill="#EECB89" transform="translate(79,123)"/>
<path d="M0 0 C0.66 0.33 1.32 0.66 2 1 C-1.06117568 3.62386487 -1.73173127 4 -6 4 C-6.66 5.32 -7.32 6.64 -8 8 C-9.32 8 -10.64 8 -12 8 C-12.33 8.66 -12.66 9.32 -13 10 C-14.32 10 -15.64 10 -17 10 C-17.33 10.99 -17.66 11.98 -18 13 C-24.75 10.375 -24.75 10.375 -27 7 C-26.23171875 7.42152344 -25.4634375 7.84304687 -24.671875 8.27734375 C-19.07558154 9.37874193 -15.26566606 6.96055101 -10.25 4.5625 C-8.36242794 3.68222581 -6.4719352 2.80817834 -4.578125 1.94140625 C-3.74700195 1.54638916 -2.91587891 1.15137207 -2.05957031 0.74438477 C-1.37991211 0.49873779 -0.70025391 0.25309082 0 0 Z " fill="#EAC984" transform="translate(172,35)"/>
<path d="M0 0 C0.99 0.33 1.98 0.66 3 1 C2.34 1 1.68 1 1 1 C-0.65 9.58 -2.3 18.16 -4 27 C-4.33 27 -4.66 27 -5 27 C-5.22262303 20.2718373 -4.95021536 14.46008837 -3 8 C-3.66 8 -4.32 8 -5 8 C-4.67 6.02 -4.34 4.04 -4 2 C-2.68 2 -1.36 2 0 2 C0 1.34 0 0.68 0 0 Z " fill="#EFC981" transform="translate(279,356)"/>
<path d="M0 0 C3.91939465 3.80411834 7.49102731 7.81576108 11 12 C9.02 12.99 9.02 12.99 7 14 C3.7 10.7 0.4 7.4 -3 4 C-2.01 3.67 -1.02 3.34 0 3 C0 2.01 0 1.02 0 0 Z " fill="#D6AE6A" transform="translate(284,135)"/>
<path d="M0 0 C0 0.33 0 0.66 0 1 C-0.81154541 1.01981934 -1.62309082 1.03963867 -2.45922852 1.06005859 C-6.16062749 1.15571837 -9.86149365 1.26523214 -13.5625 1.375 C-14.83931641 1.4059375 -16.11613281 1.436875 -17.43164062 1.46875 C-23.67851808 1.66345787 -29.07677926 2.0459478 -35 4 C-37.3060317 4.27069697 -39.62006375 4.48165343 -41.9375 4.625 C-43.65259766 4.73714844 -43.65259766 4.73714844 -45.40234375 4.8515625 C-46.25957031 4.90054688 -47.11679688 4.94953125 -48 5 C-35.29320473 -3.47119684 -14.5847388 -0.27598487 0 0 Z " fill="#322005" transform="translate(248,73)"/>
<path d="M0 0 C0.33 0 0.66 0 1 0 C1 3.96 1 7.92 1 12 C-1.96046916 11.38398318 -4.9180858 10.75766298 -7.875 10.125 C-8.71675781 9.95097656 -9.55851562 9.77695313 -10.42578125 9.59765625 C-11.23144531 9.42363281 -12.03710938 9.24960938 -12.8671875 9.0703125 C-13.61081543 8.91320801 -14.35444336 8.75610352 -15.12060547 8.59423828 C-17 8 -17 8 -19 6 C-18.11957031 6.08378906 -17.23914063 6.16757813 -16.33203125 6.25390625 C-14.58986328 6.40666016 -14.58986328 6.40666016 -12.8125 6.5625 C-11.66394531 6.66691406 -10.51539063 6.77132812 -9.33203125 6.87890625 C-6.31368801 6.98859985 -3.91076064 6.74002389 -1 6 C-0.67 4.02 -0.34 2.04 0 0 Z " fill="#DAB163" transform="translate(273,67)"/>
<path d="M0 0 C-0.44472656 0.43570313 -0.88945312 0.87140625 -1.34765625 1.3203125 C-3.08547812 3.14918199 -4.62577895 4.8815854 -6 7 C-6.04385696 10.34595936 -6.04385696 10.34595936 -5 13 C-6.32 12.67 -7.64 12.34 -9 12 C-10.25 4.375 -10.25 4.375 -8 1 C-4.65086245 -0.71750644 -3.65376797 -1.21792266 0 0 Z " fill="#D8B15E" transform="translate(292,34)"/>
<path d="M0 0 C-2.56126064 1.294174 -5.12393358 2.58540784 -7.6875 3.875 C-8.40873047 4.23980469 -9.12996094 4.60460937 -9.87304688 4.98046875 C-19.86647727 10 -19.86647727 10 -24 10 C-24 9.34 -24 8.68 -24 8 C-22.58774074 7.32404685 -21.16997095 6.65959941 -19.75 6 C-18.56664062 5.443125 -18.56664062 5.443125 -17.359375 4.875 C-15 4 -15 4 -11 4 C-11 3.34 -11 2.68 -11 2 C-9.54494642 1.47007308 -8.08581873 0.9513211 -6.625 0.4375 C-5.81289063 0.14746094 -5.00078125 -0.14257812 -4.1640625 -0.44140625 C-2 -1 -2 -1 0 0 Z " fill="#EDCB89" transform="translate(315,343)"/>
<path d="M0 0 C0.66 0.33 1.32 0.66 2 1 C1.67 3.31 1.34 5.62 1 8 C-0.093125 7.814375 -1.18625 7.62875 -2.3125 7.4375 C-5.93624133 6.7421932 -5.93624133 6.7421932 -9 8 C-11.33299825 8.03954234 -13.66708189 8.04401732 -16 8 C-15.46632812 7.73574219 -14.93265625 7.47148437 -14.3828125 7.19921875 C-12.5985788 6.30125195 -10.82405192 5.38395293 -9.0546875 4.45703125 C-8.00539063 3.91433594 -6.95609375 3.37164062 -5.875 2.8125 C-4.82054687 2.26207031 -3.76609375 1.71164062 -2.6796875 1.14453125 C-1.79539062 0.76683594 -0.91109375 0.38914062 0 0 Z " fill="#CFA95D" transform="translate(269,256)"/>
<path d="M0 0 C4.95 2.31 9.9 4.62 15 7 C14.67 7.66 14.34 8.32 14 9 C13.2575 8.649375 12.515 8.29875 11.75 7.9375 C8.82879218 6.9416337 7.81513699 6.93218942 5 8 C4.01 8.495 4.01 8.495 3 9 C2.01 8.01 1.02 7.02 0 6 C0.66 4.68 1.32 3.36 2 2 C1.34 2 0.68 2 0 2 C0 1.34 0 0.68 0 0 Z " fill="#E4B766" transform="translate(193,254)"/>
<path d="M0 0 C0.66 1.32 1.32 2.64 2 4 C1.01 5.485 1.01 5.485 0 7 C-0.66 7 -1.32 7 -2 7 C-1.82082031 7.61488281 -1.64164062 8.22976562 -1.45703125 8.86328125 C-1.24433594 9.67152344 -1.03164062 10.47976562 -0.8125 11.3125 C-0.59207031 12.11300781 -0.37164062 12.91351563 -0.14453125 13.73828125 C0 16 0 16 -1.32421875 17.79296875 C-3 19 -3 19 -5 19 C-4.70245971 11.87391001 -3.28874656 6.3327492 0 0 Z " fill="#ECBC5D" transform="translate(79,123)"/>
<path d="M0 0 C3.63 0 7.26 0 11 0 C11 0.66 11 1.32 11 2 C11.99 2 12.98 2 14 2 C14.33 2.99 14.66 3.98 15 5 C14.113125 4.690625 13.22625 4.38125 12.3125 4.0625 C11.219375 3.711875 10.12625 3.36125 9 3 C8.195625 2.690625 7.39125 2.38125 6.5625 2.0625 C2.95819847 1.97459021 1.27867517 3.65127763 -1.44921875 5.87109375 C-3 7 -3 7 -5 7 C-5 6.01 -5 5.02 -5 4 C-3.68 4 -2.36 4 -1 4 C-0.67 2.68 -0.34 1.36 0 0 Z " fill="#ECCB86" transform="translate(145,341)"/>
<path d="M0 0 C-0.64985095 4.71370756 -2.51561392 8.57686444 -4.5625 12.8125 C-5.0565332 13.85180664 -5.0565332 13.85180664 -5.56054688 14.91210938 C-6.36872251 16.61044948 -7.18368377 18.30555769 -8 20 C-9.07511952 16.33550812 -8.69247635 15.38495269 -7 12 C-6.84608041 10.66969495 -6.72392748 9.33552092 -6.625 8 C-6.30609637 4.89213921 -6.0669278 4.08635845 -4.0625 1.5 C-2 0 -2 0 0 0 Z " fill="#DEB564" transform="translate(128,133)"/>
<path d="M0 0 C0.99 0.33 1.98 0.66 3 1 C1.49637741 4.78716158 -0.05487001 8.55245187 -1.625 12.3125 C-2.07101563 13.38113281 -2.51703125 14.44976562 -2.9765625 15.55078125 C-3.48316406 16.76314453 -3.48316406 16.76314453 -4 18 C-4.66 18 -5.32 18 -6 18 C-6 15.03 -6 12.06 -6 9 C-4.68 8.67 -3.36 8.34 -2 8 C-1.855625 7.236875 -1.71125 6.47375 -1.5625 5.6875 C-1 3 -1 3 0 0 Z " fill="#DCB166" transform="translate(169,154)"/>
<path d="M0 0 C2.475 0.495 2.475 0.495 5 1 C5.268125 1.969375 5.53625 2.93875 5.8125 3.9375 C6.204375 4.948125 6.59625 5.95875 7 7 C7.99 7.33 8.98 7.66 10 8 C10.33 10.97 10.66 13.94 11 17 C8.15604453 13.55201858 5.63857848 10.02681212 3.25 6.25 C2.63640625 5.28578125 2.0228125 4.3215625 1.390625 3.328125 C0 1 0 1 0 0 Z " fill="#ECC782" transform="translate(73,90)"/>
<path d="M0 0 C0.33 0 0.66 0 1 0 C1 10.89 1 21.78 1 33 C-0.65 32.34 -2.3 31.68 -4 31 C-4 30.34 -4 29.68 -4 29 C-2.68 29 -1.36 29 0 29 C0 19.43 0 9.86 0 0 Z " fill="#E7BE75" transform="translate(321,311)"/>
<path d="M0 0 C6.22297833 -0.24403837 9.84599161 0.56399441 15 4 C15 4.66 15 5.32 15 6 C16.32 6 17.64 6 19 6 C20.75 7.5 20.75 7.5 22 9 C21.67 9.66 21.34 10.32 21 11 C20.23816406 10.52949219 19.47632813 10.05898437 18.69140625 9.57421875 C12.55773622 5.8756387 6.89440831 2.95341569 0 1 C0 0.67 0 0.34 0 0 Z " fill="#CCA762" transform="translate(255,124)"/>
<path d="M0 0 C2.64 0 5.28 0 8 0 C8.66 4.29 9.32 8.58 10 13 C10.66 13 11.32 13 12 13 C12.33 15.64 12.66 18.28 13 21 C10.44441289 18.44441289 9.70916015 16.00344041 8.4375 12.625 C8.00308594 11.48289063 7.56867188 10.34078125 7.12109375 9.1640625 C6.27323952 6.7711638 5.54232929 4.47399652 5 2 C3.35 1.67 1.7 1.34 0 1 C0 0.67 0 0.34 0 0 Z " fill="#EED298" transform="translate(65,238)"/>
<path d="M0 0 C2.73804116 1.12998524 4.73761327 2.89124337 6.96875 4.8125 C5.97875 5.1425 4.98875 5.4725 3.96875 5.8125 C3.96875 5.1525 3.96875 4.4925 3.96875 3.8125 C2.31875 3.4825 0.66875 3.1525 -1.03125 2.8125 C-1.03125 3.4725 -1.03125 4.1325 -1.03125 4.8125 C-4.03125 6.8125 -4.03125 6.8125 -6.21875 6.4375 C-6.816875 6.23125 -7.415 6.025 -8.03125 5.8125 C-7.13097412 4.77718274 -6.21031965 3.75955835 -5.28125 2.75 C-4.51554687 1.89728516 -4.51554687 1.89728516 -3.734375 1.02734375 C-2.03125 -0.1875 -2.03125 -0.1875 0 0 Z " fill="#EBC57D" transform="translate(125.03125,29.1875)"/>
<path d="M0 0 C-6 6 -6 6 -8.5625 6.0625 C-9.7690625 6.0315625 -9.7690625 6.0315625 -11 6 C-11 4.68 -11 3.36 -11 2 C-9.73392393 1.46770674 -8.46189588 0.94955456 -7.1875 0.4375 C-6.47980469 0.14746094 -5.77210938 -0.14257812 -5.04296875 -0.44140625 C-3 -1 -3 -1 0 0 Z " fill="#EBC478" transform="translate(186,32)"/>
<path d="M0 0 C1.57231984 2.87253108 2.42815444 5.44736151 3.03515625 8.66015625 C3.20466797 9.53607422 3.37417969 10.41199219 3.54882812 11.31445312 C3.71833984 12.22130859 3.88785156 13.12816406 4.0625 14.0625 C4.4058804 15.86620447 4.75086444 17.66960458 5.09765625 19.47265625 C5.24726807 20.26937744 5.39687988 21.06609863 5.55102539 21.88696289 C5.99568747 24.17397818 5.99568747 24.17397818 7 27 C5.07421875 26.4375 5.07421875 26.4375 3 25 C2.20703125 21.875 2.20703125 21.875 1.8125 18 C1.73918457 17.33025146 1.66586914 16.66050293 1.59033203 15.97045898 C1.37631324 13.98208623 1.18783181 11.9910172 1 10 C0.88785156 8.93910156 0.77570313 7.87820312 0.66015625 6.78515625 C0.42339083 4.52453295 0.20242021 2.26391019 0 0 Z " fill="#FCE4C0" transform="translate(274,4)"/>
<path d="M0 0 C0.85094012 2.86501853 1.05606629 5.07778723 0.6953125 8.0390625 C0.56189453 9.15667969 0.56189453 9.15667969 0.42578125 10.296875 C0.32652344 11.06515625 0.22726563 11.8334375 0.125 12.625 C0.03347656 13.40101562 -0.05804688 14.17703125 -0.15234375 14.9765625 C-0.86040107 20.72080213 -0.86040107 20.72080213 -2 23 C-2.66 23 -3.32 23 -4 23 C-3.48400816 15.1177798 -1.9078547 7.65541695 0 0 Z " fill="#F1D197" transform="translate(194,0)"/>
<path d="M0 0 C2.31 1.65 4.62 3.3 7 5 C7.99 4.01 8.98 3.02 10 2 C10.99 2.33 11.98 2.66 13 3 C10.8125 5.5625 10.8125 5.5625 8 8 C5.375 8.125 5.375 8.125 3 7 C0 2.96551724 0 2.96551724 0 0 Z " fill="#CAA45B" transform="translate(119,307)"/>
<path d="M0 0 C2.74792483 3.40219265 6 7.48464588 6 12 C3.03 12.66 0.06 13.32 -3 14 C-3.33 13.34 -3.66 12.68 -4 12 C-1.69 12 0.62 12 3 12 C3 10.68 3 9.36 3 8 C2.34 8 1.68 8 1 8 C0.67 5.36 0.34 2.72 0 0 Z " fill="#BD9C58" transform="translate(288,49)"/>
<path d="M0 0 C0.33 0 0.66 0 1 0 C1.38838614 2.79040505 1.76120046 5.58137886 2.125 8.375 C2.23714844 9.1690625 2.34929687 9.963125 2.46484375 10.78125 C2.72721267 12.84521885 2.87150738 14.92339351 3 17 C2.34 17.66 1.68 18.32 1 19 C0.01 18.67 -0.98 18.34 -2 18 C-1.34 18 -0.68 18 0 18 C0 12.06 0 6.12 0 0 Z " fill="#DDB56F" transform="translate(371,322)"/>
<path d="M0 0 C1.54928135 2.32392203 2.63607817 4.26869948 3.7265625 6.79296875 C4.0359375 7.50517578 4.3453125 8.21738281 4.6640625 8.95117188 C5.13972656 10.0581543 5.13972656 10.0581543 5.625 11.1875 C5.94984375 11.93708984 6.2746875 12.68667969 6.609375 13.45898438 C7.40886262 15.3048602 8.20477953 17.15228184 9 19 C8.34 19.33 7.68 19.66 7 20 C7 19.01 7 18.02 7 17 C6.01 17 5.02 17 4 17 C3.71125 15.783125 3.4225 14.56625 3.125 13.3125 C2.51237377 10.83136377 1.84636595 8.62445011 0.875 6.25 C0 4 0 4 0 0 Z " fill="#D1AE63" transform="translate(120,235)"/>
<path d="M0 0 C3.63 0 7.26 0 11 0 C11 0.33 11 0.66 11 1 C6.545 1.495 6.545 1.495 2 2 C1.67 6.29 1.34 10.58 1 15 C0.67 15 0.34 15 0 15 C0 10.05 0 5.1 0 0 Z " fill="#1C0D01" transform="translate(355,420)"/>
<path d="M0 0 C0 0.66 0 1.32 0 2 C-0.66 2 -1.32 2 -2 2 C-2 2.66 -2 3.32 -2 4 C-4.75 6.1875 -4.75 6.1875 -8 8 C-10.203125 7.61328125 -10.203125 7.61328125 -12 7 C-10.70982586 6.01886757 -9.41780894 5.04015801 -8.125 4.0625 C-7.04605469 3.24458984 -7.04605469 3.24458984 -5.9453125 2.41015625 C-2.62049861 0 -2.62049861 0 0 0 Z " fill="#C39E57" transform="translate(182,103)"/>
<path d="M0 0 C0.66 0.33 1.32 0.66 2 1 C1.34 2.32 0.68 3.64 0 5 C-1.32 5 -2.64 5 -4 5 C-4.33 8.3 -4.66 11.6 -5 15 C-5.33 15 -5.66 15 -6 15 C-6 11.04 -6 7.08 -6 3 C-4.03533587 1.93224776 -2.03144641 0.93446535 0 0 Z " fill="#3B2812" transform="translate(280,64)"/>
<path d="M0 0 C0.33 0 0.66 0 1 0 C0.37679879 6.43974581 -0.64008262 12.67572401 -2 19 C-2.33 19 -2.66 19 -3 19 C-3.35368021 11.87399867 -2.95671348 6.52940894 0 0 Z " fill="#F1D7A5" transform="translate(277,364)"/>
<path d="M0 0 C1.65 1.65 3.3 3.3 5 5 C4.34 6.32 3.68 7.64 3 9 C1.02 7.35 -0.96 5.7 -3 4 C-2.01 3.67 -1.02 3.34 0 3 C0 2.01 0 1.02 0 0 Z " fill="#D1A85F" transform="translate(284,135)"/>
<path d="M0 0 C2 1 2 1 3 3 C-1.33420699 5.03165952 -5.28596212 5.52060632 -10 6 C-7.31100548 2.67830089 -3.94687492 1.43522725 0 0 Z " fill="#CAA25B" transform="translate(192,97)"/>
<path d="M0 0 C2.97 0.495 2.97 0.495 6 1 C6 2.32 6 3.64 6 5 C6.99 5 7.98 5 9 5 C9.33 6.65 9.66 8.3 10 10 C2.51708428 3.84965831 2.51708428 3.84965831 0 0 Z " fill="#EECA87" transform="translate(110,344)"/>
<path d="M0 0 C0.99 0.495 0.99 0.495 2 1 C2.8515625 3.72265625 2.8515625 3.72265625 3.625 7.0625 C3.88539062 8.16722656 4.14578125 9.27195313 4.4140625 10.41015625 C4.60742188 11.26480469 4.80078125 12.11945313 5 13 C2 12 2 12 0.8125 9.875 C-0.14531259 6.48581699 -0.13746202 3.50528139 0 0 Z " fill="#CDA860" transform="translate(115,221)"/>
<path d="M0 0 C-1.38188453 3.21043882 -2.92421903 5.04936365 -5.625 7.25 C-6.57246094 8.03117187 -6.57246094 8.03117187 -7.5390625 8.828125 C-8.02117187 9.21484375 -8.50328125 9.6015625 -9 10 C-8.49396008 7.83125748 -8.00016187 6.00032373 -7 4 C-6.34 4 -5.68 4 -5 4 C-5 3.34 -5 2.68 -5 2 C-2 0 -2 0 0 0 Z " fill="#CEAB60" transform="translate(125,73)"/>
<path d="M0 0 C0.99 0.33 1.98 0.66 3 1 C1.4169423 5.2742558 -1.50568404 7.26531794 -5 10 C-4.67 8.68 -4.34 7.36 -4 6 C-3.34 6 -2.68 6 -2 6 C-2 4.68 -2 3.36 -2 2 C-1.34 2 -0.68 2 0 2 C0 1.34 0 0.68 0 0 Z " fill="#301D0A" transform="translate(134,83)"/>
<path d="M0 0 C0.33 0.99 0.66 1.98 1 3 C-1.64 5.97 -4.28 8.94 -7 12 C-7.66 11.67 -8.32 11.34 -9 11 C-6.03 7.37 -3.06 3.74 0 0 Z " fill="#311F0C" transform="translate(144,112)"/>
<path d="M0 0 C5.99291003 0.41330414 9.25036599 1.31903365 14 5 C10.08428299 6.305239 8.96107003 5.32239848 5.3125 3.5625 C4.31863281 3.08941406 3.32476562 2.61632812 2.30078125 2.12890625 C1.54152344 1.75636719 0.78226563 1.38382812 0 1 C0 0.67 0 0.34 0 0 Z " fill="#EDCF8D" transform="translate(160,346)"/>
<path d="M0 0 C2.9425963 0.30652045 5.34542308 0.67271154 8 2 C7.34 3.65 6.68 5.3 6 7 C5.67 5.68 5.34 4.36 5 3 C4.1028125 3.309375 4.1028125 3.309375 3.1875 3.625 C1 4 1 4 -2 2 C-1.34 1.34 -0.68 0.68 0 0 Z " fill="#CEA760" transform="translate(286,115)"/>
<path d="M0 0 C0 3.92709135 -1.27900462 4.8189713 -3.875 7.6875 C-4.59429687 8.49574219 -5.31359375 9.30398437 -6.0546875 10.13671875 C-8 12 -8 12 -10 12 C-8.52278578 8.54798361 -6.56205999 6.35038064 -3.875 3.75 C-3.15054688 3.04359375 -2.42609375 2.3371875 -1.6796875 1.609375 C-1.12539062 1.07828125 -0.57109375 0.5471875 0 0 Z " fill="#E0B76A" transform="translate(137,85)"/>
<path d="M0 0 C0.9075 0.350625 1.815 0.70125 2.75 1.0625 C5.87758436 1.96468779 7.05208081 2.13381507 10 1 C10 2.65 10 4.3 10 6 C5.56909529 4.79157144 3.01887244 3.48331435 0 0 Z " fill="#F4DBA7" transform="translate(145,42)"/>
<path d="M0 0 C0 0.66 0 1.32 0 2 C-4.29 2.99 -8.58 3.98 -13 5 C-11.72500655 2.4500131 -10.81508648 2.34023585 -8.1875 1.375 C-7.50042969 1.11460937 -6.81335938 0.85421875 -6.10546875 0.5859375 C-4 0 -4 0 0 0 Z " fill="#B69352" transform="translate(285,304)"/>
<path d="M0 0 C-1.62249941 0.83819158 -3.24808497 1.6704116 -4.875 2.5 C-6.23238281 3.19609375 -6.23238281 3.19609375 -7.6171875 3.90625 C-10 5 -10 5 -12 5 C-11.67 4.01 -11.34 3.02 -11 2 C-3.97826087 -1.32608696 -3.97826087 -1.32608696 0 0 Z " fill="#D6AE65" transform="translate(286,285)"/>
<path d="M0 0 C3.81592825 2.54395217 4.52329522 4.71755613 6 9 C5.578125 11.2265625 5.578125 11.2265625 5 13 C4.15930585 11.39967863 3.32768495 9.79458829 2.5 8.1875 C1.80390625 6.84751953 1.80390625 6.84751953 1.09375 5.48046875 C0 3 0 3 0 0 Z " fill="#E8C686" transform="translate(78,259)"/>
<path d="M0 0 C0.66 0.33 1.32 0.66 2 1 C1.67 3.31 1.34 5.62 1 8 C-1.475 7.01 -1.475 7.01 -4 6 C-3.6875 4.125 -3.6875 4.125 -3 2 C-2.01 1.34 -1.02 0.68 0 0 Z " fill="#DFB05E" transform="translate(269,256)"/>
<path d="M0 0 C0.66 0.33 1.32 0.66 2 1 C1.32902328 5.19360449 -0.8558394 8.40334352 -3 12 C-4.21386936 8.35839192 -3.6674695 7.66834531 -2.0625 4.3125 C-1.49208984 3.10013672 -1.49208984 3.10013672 -0.91015625 1.86328125 C-0.60980469 1.24839844 -0.30945313 0.63351563 0 0 Z " fill="#D4AC62" transform="translate(133,121)"/>
<path d="M0 0 C3.63 0 7.26 0 11 0 C7.91330796 3.08669204 7.08072342 3.44855089 3 4 C2.01 2.68 1.02 1.36 0 0 Z " fill="#EBCF97" transform="translate(120,354)"/>
<path d="M0 0 C4.50802601 1.25805377 7.4912812 2.90407165 11 6 C10.01 6.66 9.02 7.32 8 8 C6.66372225 6.85760183 5.33104612 5.71098945 4 4.5625 C3.2575 3.92441406 2.515 3.28632813 1.75 2.62890625 C1.1725 2.09136719 0.595 1.55382812 0 1 C0 0.67 0 0.34 0 0 Z " fill="#251404" transform="translate(117,305)"/>
<path d="M0 0 C0.66 1.32 1.32 2.64 2 4 C1.01 5.485 1.01 5.485 0 7 C-0.66 7 -1.32 7 -2 7 C-2 8.65 -2 10.3 -2 12 C-2.66 12 -3.32 12 -4 12 C-3.45660208 7.43545749 -2.20536179 4.0271824 0 0 Z " fill="#EBCF91" transform="translate(79,123)"/>
<path d="M0 0 C0 3.19633438 -0.33810135 4.34096216 -2 7 C-4.125 8.75 -4.125 8.75 -6 10 C-6.66 9.67 -7.32 9.34 -8 9 C-6.85459775 7.68712379 -5.70866567 6.37470979 -4.5625 5.0625 C-3.92441406 4.33160156 -3.28632813 3.60070312 -2.62890625 2.84765625 C-1.77458541 1.87860647 -0.91348825 0.91348825 0 0 Z " fill="#CAA361" transform="translate(159,120)"/>
<path d="M0 0 C0 3 0 3 -1 5 C-3.64860427 5.59355614 -6.29197322 5.74209269 -9 6 C-6.11912454 3.59927045 -3.43595166 1.52708963 0 0 Z " fill="#D2AB60" transform="translate(299,295)"/>
<path d="M0 0 C0.33 0.99 0.66 1.98 1 3 C-1.31 5.31 -3.62 7.62 -6 10 C-6.66 9.67 -7.32 9.34 -8 9 C-5.36 6.03 -2.72 3.06 0 0 Z " fill="#39260F" transform="translate(183,141)"/>
<path d="M0 0 C0.33 0 0.66 0 1 0 C1.21278058 4.46839215 0.59138085 7.82262526 -1 12 C-1.99 12 -2.98 12 -4 12 C-2.66666667 8 -1.33333333 4 0 0 Z " fill="#E8C984" transform="translate(85,109)"/>
<path d="M0 0 C2.45823172 3.68734758 3.01242616 6.69699971 4 11 C2.68 11.33 1.36 11.66 0 12 C0 8.04 0 4.08 0 0 Z " fill="#C9A75E" transform="translate(162,208)"/>
<path d="M0 0 C0.33 0 0.66 0 1 0 C1.125 3.375 1.125 3.375 1 7 C0.34 7.66 -0.32 8.32 -1 9 C-1.66 8.67 -2.32 8.34 -3 8 C-1.125 2.25 -1.125 2.25 0 0 Z " fill="#C7A257" transform="translate(141,144)"/>
<path d="M0 0 C0 3.66666667 0 7.33333333 0 11 C-1.32 9.35 -2.64 7.7 -4 6 C-2.84826645 3.53199953 -1.95216435 1.95216435 0 0 Z " fill="#ECCD91" transform="translate(73,79)"/>
<path d="M0 0 C0.66 0 1.32 0 2 0 C2 1.98 2 3.96 2 6 C2.66 6 3.32 6 4 6 C4 6.99 4 7.98 4 9 C3.01 9 2.02 9 1 9 C0.67 6.03 0.34 3.06 0 0 Z " fill="#E9C98B" transform="translate(193,378)"/>
<path d="M0 0 C0 0.66 0 1.32 0 2 C1.65 2.33 3.3 2.66 5 3 C1.69564916 4.12377697 -0.0506862 3.89554742 -3.25 2.5625 C-3.95640625 2.27503906 -4.6628125 1.98757813 -5.390625 1.69140625 C-5.92171875 1.46324219 -6.4528125 1.23507812 -7 1 C-3.375 -1.125 -3.375 -1.125 0 0 Z " fill="#402E11" transform="translate(197,306)"/>
<path d="M0 0 C4.875 4.75 4.875 4.75 6 7 C4.02 6.34 2.04 5.68 0 5 C0 3.35 0 1.7 0 0 Z " fill="#CAA359" transform="translate(178,240)"/>
<path d="M0 0 C0.99 0 1.98 0 3 0 C3 2.64 3 5.28 3 8 C2.01 8 1.02 8 0 8 C0.2784375 7.13375 0.2784375 7.13375 0.5625 6.25 C1.04023546 3.79307475 0.75729364 2.35602466 0 0 Z " fill="#EFCD94" transform="translate(84,273)"/>
<path d="M0 0 C2.96404505 2.80804268 5.44499019 5.18315774 7 9 C4.525 8.01 4.525 8.01 2 7 C2 6.01 2 5.02 2 4 C1.34 4 0.68 4 0 4 C0 2.68 0 1.36 0 0 Z " fill="#BF9C55" transform="translate(134,262)"/>
<path d="M0 0 C2.0625 0.4375 2.0625 0.4375 4 1 C2.25 5.875 2.25 5.875 0 7 C-0.38133299 5.0085944 -0.71325582 3.00720923 -1 1 C-0.67 0.67 -0.34 0.34 0 0 Z " fill="#DEB463" transform="translate(173,146)"/>
<path d="M0 0 C2.49361571 1.20381448 4.68143083 2.45428722 7 4 C6.67 4.99 6.34 5.98 6 7 C3.95880212 5.38405168 1.95927063 3.7143618 0 2 C0 1.34 0 0.68 0 0 Z " fill="#CCA862" transform="translate(126,73)"/>
<path d="M0 0 C1.98 0 3.96 0 6 0 C3.31158141 2.25245881 1.35358125 3.88213958 -2 5 C-2 4.34 -2 3.68 -2 3 C-1.34 3 -0.68 3 0 3 C0 2.01 0 1.02 0 0 Z " fill="#EED298" transform="translate(133,349)"/>
<path d="M0 0 C0.33 0.99 0.66 1.98 1 3 C1.66 3 2.32 3 3 3 C3.33 4.65 3.66 6.3 4 8 C2.35 6.68 0.7 5.36 -1 4 C-0.67 2.68 -0.34 1.36 0 0 Z " fill="#F1CF98" transform="translate(70,300)"/>
<path d="M0 0 C3.79588866 0.54226981 5.47211993 2.20127563 8 5 C7.01 5.495 7.01 5.495 6 6 C5.67 5.34 5.34 4.68 5 4 C3.02111039 3.27306096 1.02045442 2.60183749 -1 2 C-0.67 1.34 -0.34 0.68 0 0 Z " fill="#D1AF65" transform="translate(306,290)"/>
<path d="M0 0 C1 2 1 2 0.3125 4.4375 C-1.10829685 7.21143671 -2.39746148 8.35172561 -5 10 C-3.66511872 6.40608886 -2.03977277 3.24509304 0 0 Z " fill="#241607" transform="translate(174,152)"/>
<path d="M0 0 C0 0.66 0 1.32 0 2 C-3.47325181 3.1577506 -6.36067448 3.06866652 -10 3 C-6.26223701 0.50815801 -4.5227786 0 0 0 Z " fill="#321D0C" transform="translate(218,123)"/>
<path d="M0 0 C1.98 1.65 3.96 3.3 6 5 C5.01 5.66 4.02 6.32 3 7 C0 3.375 0 3.375 0 0 Z " fill="#E6BA67" transform="translate(116,88)"/>
<path d="M0 0 C-1.28913487 0.67154933 -2.58140204 1.33708859 -3.875 2 C-4.59429687 2.37125 -5.31359375 2.7425 -6.0546875 3.125 C-8 4 -8 4 -10 4 C-9.67 3.01 -9.34 2.02 -9 1 C-3.79245283 -1.26415094 -3.79245283 -1.26415094 0 0 Z " fill="#C9A761" transform="translate(182,85)"/>
<path d="M0 0 C0.33 0.99 0.66 1.98 1 3 C-0.9375 5.6875 -0.9375 5.6875 -3 8 C-3.75 6.25 -3.75 6.25 -4 4 C-2.0625 1.75 -2.0625 1.75 0 0 Z " fill="#35240D" transform="translate(119,296)"/>
<path d="M0 0 C0.7425 0.2475 1.485 0.495 2.25 0.75 C-0.60306797 3.07472205 -3.29074837 4.5008258 -6.75 5.75 C-6.75 3.75 -6.75 3.75 -5.0625 1.5625 C-2.75 -0.25 -2.75 -0.25 0 0 Z " fill="#271607" transform="translate(306.75,288.25)"/>
<path d="M0 0 C0.639375 0.2475 1.27875 0.495 1.9375 0.75 C2.2675 1.74 2.5975 2.73 2.9375 3.75 C-1.8125 3 -1.8125 3 -4.0625 0.75 C-2.0625 -0.25 -2.0625 -0.25 0 0 Z " fill="#CCAA63" transform="translate(275.0625,254.25)"/>
<path d="M0 0 C2.475 0.495 2.475 0.495 5 1 C5.33 2.65 5.66 4.3 6 6 C3.97945196 4.35830472 1.97956942 2.69088222 0 1 C0 0.67 0 0.34 0 0 Z " fill="#2A1808" transform="translate(288,139)"/>
<path d="M0 0 C0.33 1.32 0.66 2.64 1 4 C-0.9375 6.25 -0.9375 6.25 -3 8 C-3.66 7.67 -4.32 7.34 -5 7 C-3.35 4.69 -1.7 2.38 0 0 Z " fill="#E4B664" transform="translate(162,117)"/>
<path d="M0 0 C1.32 0 2.64 0 4 0 C2.63016497 3.16115776 2.0109362 3.9927092 -1 6 C-0.67 4.02 -0.34 2.04 0 0 Z " fill="#D8AF63" transform="translate(145,106)"/>
<path d="M0 0 C0.66 0 1.32 0 2 0 C2.66 2.64 3.32 5.28 4 8 C2.68 7.34 1.36 6.68 0 6 C0 4.02 0 2.04 0 0 Z " fill="#F0D49A" transform="translate(277,23)"/>
</svg>
